<svg xmlns="http://www.w3.org/2000/svg" xmlns:xlink="http://www.w3.org/1999/xlink" width="427.24" height="127.087" viewBox="0 0 427.24 127.087">
  <defs>
    <filter id="Path_1720" x="6.087" y="0" width="159.621" height="59.135" filterUnits="userSpaceOnUse">
      <feOffset dy="4" input="SourceAlpha"/>
      <feGaussianBlur stdDeviation="0.5" result="blur"/>
      <feFlood flood-color="#303030" flood-opacity="0.161"/>
      <feComposite operator="in" in2="blur"/>
      <feComposite in="SourceGraphic"/>
    </filter>
    <filter id="Path_1720-2" x="6.087" y="0" width="159.621" height="59.135" filterUnits="userSpaceOnUse">
      <feOffset dy="3" input="SourceAlpha"/>
      <feGaussianBlur stdDeviation="3" result="blur-2"/>
      <feFlood flood-color="#6e6e6e" flood-opacity="0.161" result="color"/>
      <feComposite operator="out" in="SourceGraphic" in2="blur-2"/>
      <feComposite operator="in" in="color"/>
      <feComposite operator="in" in2="SourceGraphic"/>
    </filter>
    <filter id="Path_1844" x="0" y="60.467" width="427.24" height="66.62" filterUnits="userSpaceOnUse">
      <feOffset dy="3" input="SourceAlpha"/>
      <feGaussianBlur stdDeviation="3" result="blur-3"/>
      <feFlood flood-opacity="0.161"/>
      <feComposite operator="in" in2="blur-3"/>
      <feComposite in="SourceGraphic"/>
    </filter>
  </defs>
  <g id="Group_1862" data-name="Group 1862" transform="translate(-16.849 -30.978)">
    <g data-type="innerShadowGroup">
      <g transform="matrix(1, 0, 0, 1, 16.85, 30.98)" filter="url(#Path_1720)">
        <path id="Path_1720-3" data-name="Path 1720" d="M-47.1-24.335H-59.039V9.829H-47.1c10.915,0,18.012-6.706,18.012-17.033C-29.085-17.581-36.182-24.335-47.1-24.335ZM-52.187,4V-18.559h4.846c7.2,0,11.258,4.258,11.258,11.355S-40.146,4-47.342,4Zm28.242,5.825h6.852V-17.287h-6.852Zm3.475-30.346a4.047,4.047,0,0,0,4.209-4.014,4.047,4.047,0,0,0-4.209-4.014,4.018,4.018,0,0,0-4.209,4.014A4.018,4.018,0,0,0-20.47-20.517Zm8.37,16.69c0,8.468,5.482,14.1,12.383,14.1A10.7,10.7,0,0,0,9.24,5.815v4.209c0,5.041-2.937,7.2-6.706,7.2-3.426,0-5.971-1.615-6.657-4.062h-6.8c.685,6.216,6.02,10.034,13.656,10.034,8.908,0,13.411-5.825,13.411-13.166V-17.287H9.24v3.867A10.609,10.609,0,0,0,.283-17.727C-6.619-17.727-12.1-12.294-12.1-3.827Zm21.34.1c0,5.139-3.426,7.978-7.2,7.978C-1.626,4.249-5.1,1.312-5.1-3.827s3.475-7.88,7.146-7.88C5.814-11.707,9.24-8.868,9.24-3.729ZM22.847,9.829H29.7V-17.287H22.847Zm3.475-30.346a4.048,4.048,0,0,0,4.209-4.014,4.047,4.047,0,0,0-4.209-4.014,4.018,4.018,0,0,0-4.209,4.014A4.018,4.018,0,0,0,26.322-20.517Zm8.575-2.93h10.58V9.829H53.44V-23.447h10.58v-6.428H34.9ZM97.581-1.661c0-13.993-20.364-9.556-20.364-17.52,0-3.242,2.332-4.778,5.461-4.664,3.413.057,5.518,2.1,5.688,4.721h8.76c-.512-7.167-6.086-11.32-14.221-11.32-8.191,0-13.993,4.323-13.993,11.49-.057,14.391,20.421,9.215,20.421,17.8,0,2.844-2.218,4.835-5.973,4.835-3.7,0-5.8-2.1-6.03-5.29H68.8c.114,7.509,6.485,11.832,14.733,11.832C92.576,10.227,97.581,4.6,97.581-1.661Z" transform="translate(66.63 30.44)" fill="#fff"/>
      </g>
      <g transform="matrix(1, 0, 0, 1, 16.85, 30.98)" filter="url(#Path_1720-2)">
        <path id="Path_1720-4" data-name="Path 1720" d="M-47.1-24.335H-59.039V9.829H-47.1c10.915,0,18.012-6.706,18.012-17.033C-29.085-17.581-36.182-24.335-47.1-24.335ZM-52.187,4V-18.559h4.846c7.2,0,11.258,4.258,11.258,11.355S-40.146,4-47.342,4Zm28.242,5.825h6.852V-17.287h-6.852Zm3.475-30.346a4.047,4.047,0,0,0,4.209-4.014,4.047,4.047,0,0,0-4.209-4.014,4.018,4.018,0,0,0-4.209,4.014A4.018,4.018,0,0,0-20.47-20.517Zm8.37,16.69c0,8.468,5.482,14.1,12.383,14.1A10.7,10.7,0,0,0,9.24,5.815v4.209c0,5.041-2.937,7.2-6.706,7.2-3.426,0-5.971-1.615-6.657-4.062h-6.8c.685,6.216,6.02,10.034,13.656,10.034,8.908,0,13.411-5.825,13.411-13.166V-17.287H9.24v3.867A10.609,10.609,0,0,0,.283-17.727C-6.619-17.727-12.1-12.294-12.1-3.827Zm21.34.1c0,5.139-3.426,7.978-7.2,7.978C-1.626,4.249-5.1,1.312-5.1-3.827s3.475-7.88,7.146-7.88C5.814-11.707,9.24-8.868,9.24-3.729ZM22.847,9.829H29.7V-17.287H22.847Zm3.475-30.346a4.048,4.048,0,0,0,4.209-4.014,4.047,4.047,0,0,0-4.209-4.014,4.018,4.018,0,0,0-4.209,4.014A4.018,4.018,0,0,0,26.322-20.517Zm8.575-2.93h10.58V9.829H53.44V-23.447h10.58v-6.428H34.9ZM97.581-1.661c0-13.993-20.364-9.556-20.364-17.52,0-3.242,2.332-4.778,5.461-4.664,3.413.057,5.518,2.1,5.688,4.721h8.76c-.512-7.167-6.086-11.32-14.221-11.32-8.191,0-13.993,4.323-13.993,11.49-.057,14.391,20.421,9.215,20.421,17.8,0,2.844-2.218,4.835-5.973,4.835-3.7,0-5.8-2.1-6.03-5.29H68.8c.114,7.509,6.485,11.832,14.733,11.832C92.576,10.227,97.581,4.6,97.581-1.661Z" transform="translate(66.63 30.44)" fill="#fff"/>
      </g>
    </g>
    <g transform="matrix(1, 0, 0, 1, 16.85, 30.98)" filter="url(#Path_1844)">
      <path id="Path_1844-2" data-name="Path 1844" d="M-145.957-45.435-158.827,0h-5.07l-11.44-38.74L-187.037,0l-4.94.065-12.61-45.5h4.875l10.4,39.845,11.635-39.845h5.07L-161.3-5.59l10.465-39.845ZM-123.467.52a18.08,18.08,0,0,1-9-2.243,16.208,16.208,0,0,1-6.3-6.37,19.458,19.458,0,0,1-2.308-9.653,19.241,19.241,0,0,1,2.34-9.653,16.367,16.367,0,0,1,6.37-6.37,18.262,18.262,0,0,1,9.035-2.243,18.446,18.446,0,0,1,9.068,2.243,16.086,16.086,0,0,1,6.37,6.37,19.458,19.458,0,0,1,2.307,9.653,19.288,19.288,0,0,1-2.34,9.62,16.188,16.188,0,0,1-6.435,6.4A18.631,18.631,0,0,1-123.467.52Zm0-3.965a13.613,13.613,0,0,0,6.5-1.592,12.155,12.155,0,0,0,4.842-4.81,15.6,15.6,0,0,0,1.853-7.9,15.828,15.828,0,0,0-1.82-7.9,11.947,11.947,0,0,0-4.81-4.81,13.613,13.613,0,0,0-6.5-1.593,13.613,13.613,0,0,0-6.5,1.593,11.744,11.744,0,0,0-4.777,4.81,16.062,16.062,0,0,0-1.788,7.9,16.062,16.062,0,0,0,1.788,7.9,11.8,11.8,0,0,0,4.745,4.81A13.424,13.424,0,0,0-123.467-3.445Zm30.745-25.74A11.119,11.119,0,0,1-88.14-34.32a14.68,14.68,0,0,1,7.572-1.82V-31.4H-81.8a11.475,11.475,0,0,0-7.93,2.665q-2.99,2.665-2.99,8.905V0h-4.55V-35.49h4.55ZM-54.568,0-69.193-15.925V0h-4.55V-48.1h4.55v28.47l14.3-15.86h6.37L-65.358-17.81-48.393,0ZM1.852-45.435v3.77h-12.61V0h-4.55V-41.665H-27.983v-3.77Zm11.765,16.25A11.119,11.119,0,0,1,18.2-34.32a14.68,14.68,0,0,1,7.573-1.82V-31.4H24.537a11.475,11.475,0,0,0-7.93,2.665q-2.99,2.665-2.99,8.905V0H9.067V-35.49h4.55Zm16.9,11.375A20.252,20.252,0,0,1,32.695-27.4a15.594,15.594,0,0,1,6.045-6.37,17.107,17.107,0,0,1,8.743-2.243,15.923,15.923,0,0,1,8.743,2.34,13.618,13.618,0,0,1,5.3,5.98v-7.8h4.55V0h-4.55V-7.865A14.252,14.252,0,0,1,56.16-1.853,15.758,15.758,0,0,1,47.417.52,16.793,16.793,0,0,1,38.74-1.755,15.765,15.765,0,0,1,32.695-8.19,20.448,20.448,0,0,1,30.517-17.81Zm31.005.065a15.626,15.626,0,0,0-1.755-7.54,12.522,12.522,0,0,0-4.778-5,13.029,13.029,0,0,0-6.662-1.755,13.5,13.5,0,0,0-6.76,1.69,11.979,11.979,0,0,0-4.713,4.907,15.963,15.963,0,0,0-1.722,7.638,16.206,16.206,0,0,0,1.722,7.638,12.105,12.105,0,0,0,4.713,5.005,13.3,13.3,0,0,0,6.76,1.723A13.029,13.029,0,0,0,54.99-5.2a12.522,12.522,0,0,0,4.778-5A15.626,15.626,0,0,0,61.522-17.745Zm12.87,0A20.151,20.151,0,0,1,76.6-27.4a15.745,15.745,0,0,1,6.11-6.37,17.541,17.541,0,0,1,8.9-2.243,17.328,17.328,0,0,1,10.823,3.25,14.714,14.714,0,0,1,5.493,8.84h-4.875a9.979,9.979,0,0,0-3.933-6.013,12.509,12.509,0,0,0-7.507-2.177,12.794,12.794,0,0,0-6.435,1.625,11.4,11.4,0,0,0-4.518,4.842,17.1,17.1,0,0,0-1.658,7.9,17.3,17.3,0,0,0,1.658,7.93A11.358,11.358,0,0,0,85.182-4.94a12.794,12.794,0,0,0,6.435,1.625,12.509,12.509,0,0,0,7.507-2.178,10.005,10.005,0,0,0,3.933-6.078h4.875A14.886,14.886,0,0,1,102.407-2.8,17.124,17.124,0,0,1,91.617.52a17.541,17.541,0,0,1-8.9-2.243,15.745,15.745,0,0,1-6.11-6.37A20.151,20.151,0,0,1,74.392-17.745ZM135.492,0,120.867-15.925V0h-4.55V-48.1h4.55v28.47l14.3-15.86h6.37L124.7-17.81,141.667,0Zm44.135-19.565q0,2.34-.13,3.575H150.053A14.284,14.284,0,0,0,152-9.1a11.481,11.481,0,0,0,4.615,4.323,13.5,13.5,0,0,0,6.24,1.462A12.531,12.531,0,0,0,170.3-5.46a10.072,10.072,0,0,0,4-5.785h4.81a15.029,15.029,0,0,1-5.558,8.483A16.994,16.994,0,0,1,162.858.52a17.9,17.9,0,0,1-8.97-2.243,15.834,15.834,0,0,1-6.208-6.37,19.913,19.913,0,0,1-2.243-9.653,20.344,20.344,0,0,1,2.21-9.685,15.361,15.361,0,0,1,6.175-6.37,18.241,18.241,0,0,1,9.035-2.21,17.339,17.339,0,0,1,8.872,2.21,15.273,15.273,0,0,1,5.85,5.948A16.962,16.962,0,0,1,179.628-19.565Zm-4.615-.13a12.609,12.609,0,0,0-1.592-6.76A10.747,10.747,0,0,0,168.9-30.68a13.756,13.756,0,0,0-6.24-1.43,12.4,12.4,0,0,0-8.645,3.25q-3.575,3.25-3.965,9.165Zm17.485-9.49a11.119,11.119,0,0,1,4.583-5.135,14.68,14.68,0,0,1,7.572-1.82V-31.4h-1.235a11.475,11.475,0,0,0-7.93,2.665q-2.99,2.665-2.99,8.905V0h-4.55V-35.49h4.55Z" transform="translate(213.59 114.57)" fill="#fff"/>
    </g>
  </g>
</svg>
