<svg xmlns="http://www.w3.org/2000/svg" width="20" height="19" viewBox="0 0 20 19">
  <g id="Group_1748" data-name="Group 1748" transform="translate(-2 -2)">
    <path id="Path_1804" data-name="Path 1804" d="M17,10H11a.945.945,0,0,1-1-1V8a.945.945,0,0,1,1-1h6a.945.945,0,0,1,1,1V9A.945.945,0,0,1,17,10Zm5-6V3a.945.945,0,0,0-1-1H11a.945.945,0,0,0-1,1V4a.945.945,0,0,0,1,1H21A.945.945,0,0,0,22,4Zm0,11V14a.945.945,0,0,0-1-1H11a.945.945,0,0,0-1,1v1a.945.945,0,0,0,1,1H21A.945.945,0,0,0,22,15Zm-4,5V19a.945.945,0,0,0-1-1H11a.945.945,0,0,0-1,1v1a.945.945,0,0,0,1,1h6A.945.945,0,0,0,18,20Z" fill="#818181" opacity="0.3"/>
    <path id="Path_1805" data-name="Path 1805" d="M8,5A2.946,2.946,0,0,1,5,8,2.946,2.946,0,0,1,2,5,2.946,2.946,0,0,1,5,2,2.946,2.946,0,0,1,8,5ZM5,4A.945.945,0,0,0,4,5,.945.945,0,0,0,5,6,.945.945,0,0,0,6,5,.945.945,0,0,0,5,4ZM8,16a2.946,2.946,0,0,1-3,3,3,3,0,0,1,0-6A2.946,2.946,0,0,1,8,16ZM5,15a1,1,0,0,0,0,2,1,1,0,0,0,0-2Z" fill="#818181"/>
  </g>
</svg>
